<svg width="362" height="72" viewBox="0 0 362 72" fill="none" xmlns="http://www.w3.org/2000/svg">
<g filter="url(#filter0_i_2_4)">
<path d="M239.499 57.5362H270.978L268.997 69.2409H221.669L233.226 1.73651H279.563L277.582 13.4413H247.094L244.452 28.6776H273.179L271.198 39.979H242.471L239.499 57.5362ZM298.511 57.5362H326.578L324.597 69.2409H280.57L292.127 1.83741H308.087L298.511 57.5362ZM359.785 1.83741L348.228 69.2409H332.379L343.935 1.83741H359.785Z" fill="white"/>
<path d="M239.499 57.5362L237.627 57.2695L237.288 59.2726H239.499V57.5362ZM270.978 57.5362L272.85 57.8024L273.189 55.7993H270.978V57.5362ZM268.997 69.2409V70.9773H270.62L270.868 69.5071L268.997 69.2409ZM221.669 69.2409L219.798 68.9716L219.454 70.9773H221.669V69.2409ZM233.226 1.73643V-6.10352e-05H231.606L231.354 1.46719L233.226 1.73643ZM279.563 1.73643L281.435 2.00271L281.774 -6.10352e-05H279.563V1.73643ZM277.582 13.4412V15.1777H279.205L279.453 13.7075L277.582 13.4412ZM247.094 13.4412V11.7047H245.477L245.223 13.1687L247.094 13.4412ZM244.452 28.6775L242.582 28.4051L242.233 30.4143H244.452V28.6775ZM273.179 28.6775L275.049 28.9534L275.402 26.9411H273.179V28.6775ZM271.198 39.9789V41.7153H272.812L273.068 40.2544L271.198 39.9789ZM242.471 39.9789V38.2425H240.848L240.599 39.7127L242.471 39.9789ZM239.499 59.2726H270.978V55.7993H239.499V59.2726ZM269.106 57.2695L267.125 68.9747L270.868 69.5071L272.85 57.8024L269.106 57.2695ZM268.997 67.5045H221.669V70.9773H268.997V67.5045ZM223.54 69.5102L235.097 2.00567L231.354 1.46719L219.798 68.9716L223.54 69.5102ZM233.226 3.47292H279.563V-6.10352e-05H233.226V3.47292ZM277.691 1.47016L275.71 13.1749L279.453 13.7075L281.435 2.00271L277.691 1.47016ZM277.582 11.7047H247.094V15.1777H277.582V11.7047ZM245.223 13.1687L242.582 28.4051L246.323 28.9503L248.964 13.7138L245.223 13.1687ZM244.452 30.4143H273.179V26.9411H244.452V30.4143ZM271.309 28.402L269.328 39.7034L273.068 40.2544L275.049 28.9534L271.309 28.402ZM271.198 38.2425H242.471V41.7153H271.198V38.2425ZM240.599 39.7127L237.627 57.2695L241.371 57.8024L244.343 40.2451L240.599 39.7127ZM298.511 57.5362L296.64 57.2656L296.295 59.2726H298.511V57.5362ZM326.578 57.5362L328.45 57.8024L328.789 55.7993H326.578V57.5362ZM324.597 69.2409V70.9773H326.219L326.468 69.5071L324.597 69.2409ZM280.57 69.2409L278.7 68.9712L278.356 70.9773H280.57V69.2409ZM292.127 1.83733V0.100842H290.508L290.256 1.5677L292.127 1.83733ZM308.087 1.83733L309.958 2.10768L310.303 0.100842H308.087V1.83733ZM298.511 59.2726H326.578V55.7993H298.511V59.2726ZM324.706 57.2695L322.725 68.9747L326.468 69.5071L328.45 57.8024L324.706 57.2695ZM324.597 67.5045H280.57V70.9773H324.597V67.5045ZM282.442 69.5106L293.999 2.10697L290.256 1.5677L278.7 68.9712L282.442 69.5106ZM292.127 3.57382H308.087V0.100842H292.127V3.57382ZM306.216 1.56699L296.64 57.2656L300.382 57.8063L309.958 2.10768L306.216 1.56699ZM359.785 1.83733L361.656 2.10697L362 0.100842H359.785V1.83733ZM348.228 69.2409V70.9773H349.848L350.099 69.5106L348.228 69.2409ZM332.379 69.2409L330.507 68.9712L330.163 70.9773H332.379V69.2409ZM343.935 1.83733V0.100842H342.316L342.064 1.5677L343.935 1.83733ZM357.913 1.5677L346.357 68.9712L350.099 69.5106L361.656 2.10697L357.913 1.5677ZM348.228 67.5045H332.379V70.9773H348.228V67.5045ZM334.25 69.5106L345.807 2.10697L342.064 1.5677L330.507 68.9712L334.25 69.5106ZM343.935 3.57382H359.785V0.100842H343.935V3.57382Z" fill="white"/>
</g>
<g filter="url(#filter1_ii_2_4)">
<path d="M6.15287 38.9273H12.906L19.1589 57.0417C19.359 57.7142 19.4757 58.2187 19.509 58.5552L19.6091 59.3348H19.8092L20.2594 58.5552C20.4929 58.0657 20.793 57.5617 21.1598 57.0417L34.416 38.9273H41.1691L35.0163 71.0288H28.013L31.2145 54.29L31.7147 52.2724L32.0148 51.2634H31.8148L31.2645 52.2724C30.6976 53.2505 30.264 53.9235 29.9639 54.29L21.51 65.7551H15.5072L11.4553 54.29C11.1885 53.4645 11.0051 52.792 10.9051 52.2724C10.8384 52.0889 10.7717 51.7524 10.705 51.2634H10.5049C10.5049 51.7219 10.4882 52.0584 10.4548 52.2724C10.3882 53.22 10.3048 53.8925 10.2048 54.29L7.00329 71.0288H3.05176e-05L6.15287 38.9273ZM43.526 71.0288L49.6787 38.9273H70.6885L69.8883 43.0545H55.8818L54.131 52.2264H65.136L64.3359 56.3537H53.3304L51.2795 66.9016H65.286L64.5356 71.0288H43.526ZM76.2047 38.9273H85.7093C93.5797 38.9273 97.5149 41.4954 97.5149 46.6317C97.5149 47.4572 97.4146 48.3283 97.2144 49.2458C96.5812 52.4254 95.03 54.9016 92.5625 56.6747C91.4286 57.4697 90.2281 58.0507 88.9606 58.4177L95.0638 71.0288H87.0597L82.0075 59.5638H79.2563L77.0551 71.0288H70.0518L76.2047 38.9273ZM82.5076 55.4366C84.8088 55.4366 86.5596 54.9626 87.7601 54.015C88.9943 53.0365 89.8114 51.4469 90.2112 49.2458C90.3448 48.6037 90.4114 47.9312 90.4114 47.2277C90.4114 45.7601 89.9614 44.7056 89.0609 44.0635C88.1937 43.391 86.8099 43.0545 84.9091 43.0545H82.4078L80.0068 55.4366H82.5076ZM112.202 71.4874C104.565 71.4874 100.746 67.8342 100.746 60.5269C100.746 58.8762 100.947 57.0266 101.347 54.9781C102.448 49.3223 104.432 45.1641 107.3 42.5044C110.168 39.8138 113.753 38.4688 118.055 38.4688C120.623 38.4688 122.807 38.8968 124.608 39.7528C125.508 40.1503 126.242 40.5629 126.809 40.9909L123.857 44.6596H123.357C123.09 44.3845 122.623 44.048 121.956 43.651C120.623 42.9475 119.222 42.596 117.754 42.596C115.554 42.596 113.653 43.5285 112.052 45.3936C110.451 47.2582 109.217 50.4533 108.35 54.9781C107.95 57.1792 107.75 59.0288 107.75 60.5269C107.75 63.0034 108.233 64.7615 109.201 65.8011C110.201 66.8402 111.635 67.3602 113.503 67.3602C115.037 67.3602 116.571 67.0237 118.105 66.3511C118.872 65.9841 119.472 65.6326 119.906 65.2965H120.406L121.907 68.9652C121.173 69.4238 120.273 69.8518 119.205 70.2493C117.104 71.0748 114.77 71.4874 112.202 71.4874ZM123.315 71.0288L139.722 38.9273H147.726L151.828 71.0288H144.825L143.975 63.6915H133.97L130.318 71.0288H123.315ZM143.524 59.5638L142.374 49.9333C142.24 49.2913 142.207 48.5423 142.274 47.6862C142.274 47.4417 142.307 47.0442 142.374 46.4941H142.174L141.773 47.6862C141.54 48.3592 141.24 49.1082 140.873 49.9333L136.021 59.5638H143.524ZM162.964 38.9273H171.468C180.072 38.9273 184.373 42.6419 184.373 50.0713C184.373 51.6304 184.207 53.266 183.873 54.9781C181.772 65.6786 175.586 71.0288 165.315 71.0288H156.811L162.964 38.9273ZM166.065 66.9016C168.933 66.9016 171.234 66.0151 172.969 64.2415C174.736 62.4684 176.037 59.3807 176.87 54.9781C177.237 53.1744 177.42 51.4929 177.42 49.9333C177.42 47.4267 176.854 45.6531 175.72 44.614C174.619 43.5745 172.935 43.0545 170.667 43.0545H169.166L164.565 66.9016H166.065ZM198.992 71.4874C195.591 71.4874 192.956 70.6008 191.088 68.8277C189.221 67.0542 188.287 64.303 188.287 60.5728C188.287 58.8913 188.487 57.0266 188.887 54.9781C189.988 49.3528 191.955 45.1946 194.79 42.5044C197.658 39.8138 201.176 38.4688 205.345 38.4688C208.747 38.4688 211.364 39.3553 213.199 41.1284C215.066 42.9019 216 45.6531 216 49.3833C216 51.0343 215.8 52.899 215.4 54.9781C214.299 60.6339 212.331 64.8071 209.497 67.4977C206.662 70.1573 203.161 71.4874 198.992 71.4874ZM199.793 67.3602C201.627 67.3602 203.294 66.4121 204.795 64.517C206.329 62.6214 207.529 59.4418 208.397 54.9781C208.83 52.7769 209.047 50.8508 209.047 49.1998C209.047 44.7971 207.546 42.596 204.545 42.596C202.677 42.596 200.976 43.544 199.442 45.4391C197.942 47.3347 196.758 50.5143 195.891 54.9781C195.49 56.9652 195.29 58.8608 195.29 60.6648C195.29 63.0494 195.691 64.7615 196.491 65.8011C197.325 66.8402 198.425 67.3602 199.793 67.3602Z" fill="#FFD66E"/>
</g>
<g filter="url(#filter2_ii_2_4)">
<path d="M81.6876 33.0187C78.4195 33.0187 75.8019 32.6061 73.8341 31.7806C72.7672 31.3831 71.9501 30.955 71.3829 30.4965L74.3844 26.8278H74.8845C75.2849 27.1944 75.8183 27.5464 76.4854 27.8824C78.0196 28.5549 79.8534 28.8914 81.9881 28.8914C83.9222 28.8914 85.4729 28.4784 86.6401 27.6534C87.8073 26.8278 88.5409 25.7118 88.8409 24.3052C88.8746 24.1527 88.891 23.9232 88.891 23.6177C88.891 22.5476 88.441 21.6761 87.5405 21.0036C86.6401 20.3004 85.2563 19.5055 83.3888 18.6189C81.7209 17.824 80.3704 17.1055 79.3368 16.4635C78.336 15.8215 77.4693 14.996 76.7357 13.9871C76.0354 12.9782 75.6852 11.7706 75.6852 10.3642C75.6852 9.84442 75.7349 9.29414 75.8352 8.71326C76.1685 7.09288 76.919 5.62536 78.0862 4.31075C79.2867 2.96553 80.8373 1.91078 82.7381 1.14644C84.6727 0.382106 86.8566 -6.10352e-05 89.2914 -6.10352e-05C92.2258 -6.10352e-05 94.6938 0.42796 96.6949 1.284C97.5616 1.62032 98.3454 2.03308 99.0457 2.52221L96.0944 6.19099H95.5943C95.2272 5.85467 94.7271 5.51836 94.0933 5.18209C92.6261 4.4789 90.9254 4.12729 88.9914 4.12729C87.5237 4.12729 86.1901 4.55531 84.9891 5.41135C83.8219 6.23684 83.1384 7.18459 82.9383 8.25464C82.905 8.4075 82.8881 8.62151 82.8881 8.89667C82.8881 9.63045 83.1216 10.2877 83.5884 10.8686C84.0891 11.4495 84.6891 11.954 85.3894 12.382C86.0897 12.7795 87.1069 13.2992 88.441 13.9412C90.0418 14.7056 91.359 15.4087 92.3927 16.0508C93.4267 16.6928 94.2935 17.5182 94.9938 18.5271C95.7274 19.536 96.0944 20.7437 96.0944 22.1501C96.0944 22.6697 96.0443 23.2352 95.9444 23.8467C95.411 26.5983 93.8936 28.8149 91.3923 30.4965C88.9243 32.1781 85.6894 33.0187 81.6876 33.0187ZM111.96 33.0187C108.591 33.0187 106.007 32.3001 104.206 30.8635C102.438 29.396 101.555 27.3323 101.555 24.6722C101.555 23.6632 101.638 22.7767 101.805 22.0126L105.957 0.458558H112.96L108.808 22.0126C108.641 22.9907 108.558 23.7552 108.558 24.3052C108.558 25.8343 108.941 26.9804 109.708 27.7449C110.476 28.5094 111.493 28.8914 112.76 28.8914C114.327 28.8914 115.695 28.3259 116.862 27.1944C118.029 26.0633 118.846 24.3362 119.313 22.0126L123.465 0.458558H130.468L126.316 22.0126C125.649 25.4978 124.065 28.2034 121.564 30.1295C119.063 32.0556 115.861 33.0187 111.96 33.0187ZM138.454 0.458558H148.459C152.494 0.458558 155.445 1.11589 157.313 2.4305C159.214 3.71457 160.164 5.67122 160.164 8.30049C160.164 9.18713 160.064 10.1655 159.864 11.2355C159.164 14.8737 157.563 17.5794 155.062 19.3526C152.594 21.126 149.009 22.0126 144.307 22.0126H141.305L139.305 32.5601H132.301L138.454 0.458558ZM145.107 17.8851C147.409 17.8851 149.159 17.3807 150.36 16.3718C151.56 15.3323 152.394 13.6202 152.861 11.2355C153.028 10.2572 153.111 9.47755 153.111 8.89667C153.111 7.36804 152.661 6.26739 151.761 5.59481C150.893 4.92222 149.526 4.58591 147.658 4.58591H144.657L142.106 17.8851H145.107ZM162.052 32.5601L168.204 0.458558H189.214L188.414 4.58591H174.407L172.656 13.7578H183.661L182.861 17.8851H171.856L169.805 28.4329H183.812L183.061 32.5601H162.052ZM194.73 0.458558H204.235C212.105 0.458558 216.04 3.02668 216.04 8.16293C216.04 8.98842 215.94 9.85972 215.74 10.7769C215.107 13.9565 213.555 16.4329 211.088 18.2061C209.954 19.001 208.754 19.5819 207.486 19.9488L213.589 32.5601H205.585L200.533 21.0951H197.782L195.581 32.5601H188.577L194.73 0.458558ZM201.033 16.9679C203.334 16.9679 205.085 16.494 206.286 15.5463C207.52 14.5679 208.337 12.9782 208.737 10.7769C208.87 10.1349 208.937 9.4623 208.937 8.75911C208.937 7.29159 208.487 6.23684 207.586 5.59481C206.719 4.92222 205.335 4.58591 203.435 4.58591H200.933L198.532 16.9679H201.033Z" fill="#FFD66E"/>
</g>
<defs>
<filter id="filter0_i_2_4" x="219.454" y="-6.10352e-05" width="142.546" height="73.1478" filterUnits="userSpaceOnUse" color-interpolation-filters="sRGB">
<feFlood flood-opacity="0" result="BackgroundImageFix"/>
<feBlend mode="normal" in="SourceGraphic" in2="BackgroundImageFix" result="shape"/>
<feColorMatrix in="SourceAlpha" type="matrix" values="0 0 0 0 0 0 0 0 0 0 0 0 0 0 0 0 0 0 127 0" result="hardAlpha"/>
<feOffset dy="2.17043"/>
<feGaussianBlur stdDeviation="1.32637"/>
<feComposite in2="hardAlpha" operator="arithmetic" k2="-1" k3="1"/>
<feColorMatrix type="matrix" values="0 0 0 0 0 0 0 0 0 0 0 0 0 0 0 0 0 0 0.28 0"/>
<feBlend mode="normal" in2="shape" result="effect1_innerShadow_2_4"/>
</filter>
<filter id="filter1_ii_2_4" x="3.05176e-05" y="38.4688" width="216" height="34.9479" filterUnits="userSpaceOnUse" color-interpolation-filters="sRGB">
<feFlood flood-opacity="0" result="BackgroundImageFix"/>
<feBlend mode="normal" in="SourceGraphic" in2="BackgroundImageFix" result="shape"/>
<feColorMatrix in="SourceAlpha" type="matrix" values="0 0 0 0 0 0 0 0 0 0 0 0 0 0 0 0 0 0 127 0" result="hardAlpha"/>
<feOffset dy="1.92927"/>
<feGaussianBlur stdDeviation="0.964634"/>
<feComposite in2="hardAlpha" operator="arithmetic" k2="-1" k3="1"/>
<feColorMatrix type="matrix" values="0 0 0 0 0 0 0 0 0 0 0 0 0 0 0 0 0 0 0.28 0"/>
<feBlend mode="normal" in2="shape" result="effect1_innerShadow_2_4"/>
<feColorMatrix in="SourceAlpha" type="matrix" values="0 0 0 0 0 0 0 0 0 0 0 0 0 0 0 0 0 0 127 0" result="hardAlpha"/>
<feOffset dy="1.92927"/>
<feGaussianBlur stdDeviation="1.20579"/>
<feComposite in2="hardAlpha" operator="arithmetic" k2="-1" k3="1"/>
<feColorMatrix type="matrix" values="0 0 0 0 1 0 0 0 0 0.66 0 0 0 0 0 0 0 0 0.31 0"/>
<feBlend mode="normal" in2="effect1_innerShadow_2_4" result="effect2_innerShadow_2_4"/>
</filter>
<filter id="filter2_ii_2_4" x="71.3829" y="-6.10352e-05" width="144.657" height="34.948" filterUnits="userSpaceOnUse" color-interpolation-filters="sRGB">
<feFlood flood-opacity="0" result="BackgroundImageFix"/>
<feBlend mode="normal" in="SourceGraphic" in2="BackgroundImageFix" result="shape"/>
<feColorMatrix in="SourceAlpha" type="matrix" values="0 0 0 0 0 0 0 0 0 0 0 0 0 0 0 0 0 0 127 0" result="hardAlpha"/>
<feOffset dy="1.92927"/>
<feGaussianBlur stdDeviation="0.964634"/>
<feComposite in2="hardAlpha" operator="arithmetic" k2="-1" k3="1"/>
<feColorMatrix type="matrix" values="0 0 0 0 0 0 0 0 0 0 0 0 0 0 0 0 0 0 0.28 0"/>
<feBlend mode="normal" in2="shape" result="effect1_innerShadow_2_4"/>
<feColorMatrix in="SourceAlpha" type="matrix" values="0 0 0 0 0 0 0 0 0 0 0 0 0 0 0 0 0 0 127 0" result="hardAlpha"/>
<feOffset dy="1.92927"/>
<feGaussianBlur stdDeviation="0.964634"/>
<feComposite in2="hardAlpha" operator="arithmetic" k2="-1" k3="1"/>
<feColorMatrix type="matrix" values="0 0 0 0 1 0 0 0 0 0.66 0 0 0 0 0 0 0 0 0.31 0"/>
<feBlend mode="normal" in2="effect1_innerShadow_2_4" result="effect2_innerShadow_2_4"/>
</filter>
</defs>
</svg>
