<svg width="30" height="30" viewBox="0 0 30 30" fill="none" xmlns="http://www.w3.org/2000/svg">
<path d="M6.85743 29.2482C3.59179 28.7952 1.05057 26.2174 0.658838 22.9604C0.574821 22.2618 0.574821 7.6626 0.658838 6.96406C1.05823 3.64335 3.67584 1.04983 7.02738 0.654107C7.7324 0.570864 22.4672 0.570864 23.1722 0.654107C26.5238 1.04983 29.1414 3.64334 29.5408 6.96406C29.6248 7.6626 29.6248 22.2618 29.5408 22.9604C29.1415 26.2799 26.5225 28.8747 23.1722 29.2703C22.3955 29.362 7.53275 29.3419 6.85743 29.2482V29.2482ZM23.767 26.73C25.3353 26.2114 26.4534 25.1036 26.9769 23.5497L27.1376 23.0726V14.9622V6.8518L26.9769 6.37472C26.4534 4.82085 25.3353 3.71307 23.767 3.19439L23.2855 3.03514H15.0998H6.91408L6.43256 3.19439C4.71389 3.7628 3.48001 5.11172 3.11398 6.82237C2.99779 7.36537 2.99779 22.5591 3.11398 23.1021C3.45863 24.7128 4.6753 26.1163 6.18111 26.6403C6.98351 26.9195 6.66134 26.9102 15.2414 26.8994L23.2855 26.8893L23.767 26.73ZM14.1084 22.0639C12.5699 21.8505 11.2389 21.2136 10.1199 20.1554C8.81981 18.926 8.08505 17.4294 7.89782 15.6293C7.6859 13.592 8.40541 11.5364 9.85836 10.0281C12.4114 7.37787 16.4778 7.03858 19.4428 9.22844C20.5041 10.0123 21.4078 11.1989 21.87 12.4158C22.5105 14.1016 22.4842 16.0276 21.7982 17.6899C21.0584 19.4824 19.4954 20.9894 17.6699 21.6702C16.5316 22.0947 15.3067 22.2301 14.1084 22.0639V22.0639ZM16.516 19.5392C18.0632 19.0486 19.2096 17.9141 19.7234 16.3654C19.8708 15.921 19.8817 15.8248 19.8817 14.9622C19.8817 14.0996 19.8708 14.0034 19.7234 13.559C19.2103 12.0123 18.0771 10.8896 16.516 10.3811C16.0675 10.2351 15.9704 10.2243 15.0998 10.2243C14.2292 10.2243 14.1321 10.2351 13.6836 10.3811C12.1225 10.8896 10.9893 12.0123 10.4762 13.559C10.3287 14.0034 10.3179 14.0996 10.3179 14.9622C10.3179 15.8248 10.3288 15.921 10.4762 16.3654C11.0409 18.0676 12.3373 19.2406 14.1084 19.652C14.3425 19.7063 14.6953 19.7248 15.2414 19.7114C15.914 19.6948 16.1076 19.6687 16.516 19.5392V19.5392ZM22.2658 8.81922C21.0887 8.33299 20.7901 6.8117 21.6957 5.91447C21.9812 5.63163 22.2571 5.4928 22.6573 5.43062C23.9039 5.23693 24.9434 6.2777 24.7195 7.49549C24.6146 8.06591 24.2688 8.51813 23.7313 8.78769C23.3202 8.99384 22.7199 9.00676 22.2658 8.81922Z" fill="#F1F1F1"/>
</svg>
