<?xml version="1.0" encoding="UTF-8" standalone="no"?>
<!-- Created with Inkscape (http://www.inkscape.org/) -->

<svg
   width="514.77087mm"
   height="512.13123mm"
   viewBox="0 0 514.77087 512.13123"
   version="1.1"
   id="svg12212"
   inkscape:version="1.1.2 (1:1.1+202202050950+0a00cf5339)"
   sodipodi:docname="eliLogo.svg"
   xmlns:inkscape="http://www.inkscape.org/namespaces/inkscape"
   xmlns:sodipodi="http://sodipodi.sourceforge.net/DTD/sodipodi-0.dtd"
   xmlns:xlink="http://www.w3.org/1999/xlink"
   xmlns="http://www.w3.org/2000/svg"
   xmlns:svg="http://www.w3.org/2000/svg">
  <sodipodi:namedview
     id="namedview12214"
     pagecolor="#505050"
     bordercolor="#eeeeee"
     borderopacity="1"
     inkscape:pageshadow="0"
     inkscape:pageopacity="0"
     inkscape:pagecheckerboard="0"
     inkscape:document-units="mm"
     showgrid="false"
     inkscape:zoom="0.19622263"
     inkscape:cx="387.31517"
     inkscape:cy="952.99917"
     inkscape:window-width="1920"
     inkscape:window-height="998"
     inkscape:window-x="0"
     inkscape:window-y="28"
     inkscape:window-maximized="1"
     inkscape:current-layer="layer1" />
  <defs
     id="defs12209">
    <linearGradient
       inkscape:collect="always"
       xlink:href="#linearGradient214534"
       id="linearGradient1325"
       gradientUnits="userSpaceOnUse"
       x1="754.70398"
       y1="-424.4252"
       x2="806.36731"
       y2="-424.4252" />
    <linearGradient
       inkscape:collect="always"
       id="linearGradient214534">
      <stop
         style="stop-color:#ffd66e;stop-opacity:1;"
         offset="0"
         id="stop214530" />
      <stop
         style="stop-color:#ca9100;stop-opacity:1"
         offset="1"
         id="stop214532" />
    </linearGradient>
    <linearGradient
       inkscape:collect="always"
       xlink:href="#linearGradient214534"
       id="linearGradient12418"
       gradientUnits="userSpaceOnUse"
       x1="754.70398"
       y1="-424.4252"
       x2="806.36731"
       y2="-424.4252" />
  </defs>
  <g
     inkscape:label="Camada 1"
     inkscape:groupmode="layer"
     id="layer1"
     transform="translate(41.285167,222.04213)">
    <g
       id="g9190"
       transform="matrix(14.224916,0,0,14.224916,-6879.7003,-1261.6338)">
      <g
         id="g1275"
         transform="matrix(0.256862,0.17945075,-0.17945075,0.256862,213.95441,54.226677)">
        <path
           style="fill:#9d0227;fill-opacity:1;stroke-width:0.188976;stroke-linecap:round;stroke-linejoin:round;paint-order:stroke fill markers"
           id="path1261"
           sodipodi:type="arc"
           sodipodi:cx="812.13226"
           sodipodi:cy="-424.25192"
           sodipodi:rx="56.543816"
           sodipodi:ry="56.708"
           sodipodi:start="0"
           sodipodi:end="6.1887804"
           sodipodi:open="true"
           sodipodi:arc-type="arc"
           d="m 868.67608,-424.25192 a 56.543816,56.708 0 0 1 -55.20944,56.6922 56.543816,56.708 0 0 1 -57.81521,-54.01644 56.543816,56.708 0 0 1 52.48067,-59.24168 56.543816,56.708 0 0 1 60.2922,51.22035" />
        <g
           id="g1267">
          <path
             id="path1263"
             style="fill:#ffffff;fill-opacity:1;stroke-width:0.0499999;stroke-linecap:round;stroke-linejoin:round;paint-order:stroke fill markers"
             d="m 777.51285,-469.75017 a 56.780747,56.780747 45 0 0 -3.41469,2.76165 56.780747,56.780747 45 0 0 -6.21955,79.10224 56.780747,56.780747 45 0 0 41.3571,20.34265 59.443522,59.443522 0 0 1 -27.93671,-18.6406 59.443522,59.443522 0 0 1 6.51112,-82.81242 59.443522,59.443522 0 0 1 21.42261,-11.96337 56.780747,56.780747 45 0 0 -31.71988,11.20985 z" />
          <path
             id="path1265"
             style="fill:url(#linearGradient12418);fill-opacity:1;stroke-width:0.188976;stroke-linecap:round;stroke-linejoin:round;paint-order:stroke fill markers"
             d="m 777.51285,-469.75017 a 56.780747,56.780747 45 0 0 -3.41469,2.76165 56.780747,56.780747 45 0 0 -6.21955,79.10224 56.780747,56.780747 45 0 0 35.71932,19.82056 59.443522,59.443522 0 0 1 -25.52863,-17.83788 59.443522,59.443522 0 0 1 6.51112,-82.81238 59.443522,59.443522 0 0 1 21.78689,-12.06868 56.780747,56.780747 45 0 0 -28.85446,11.03449 z" />
        </g>
        <g
           id="g1273"
           transform="matrix(-1,0,0,1,1625.3242,0)">
          <path
             id="path1269"
             style="fill:#ffffff;fill-opacity:1;stroke-width:0.0499999;stroke-linecap:round;stroke-linejoin:round;paint-order:stroke fill markers"
             d="m 777.51285,-469.75017 a 56.780747,56.780747 45 0 0 -3.41469,2.76165 56.780747,56.780747 45 0 0 -6.21955,79.10224 56.780747,56.780747 45 0 0 41.3571,20.34265 59.443522,59.443522 0 0 1 -27.93671,-18.6406 59.443522,59.443522 0 0 1 6.51112,-82.81242 59.443522,59.443522 0 0 1 21.42261,-11.96337 56.780747,56.780747 45 0 0 -31.71988,11.20985 z" />
          <path
             id="path1271"
             style="fill:url(#linearGradient1325);fill-opacity:1;stroke-width:0.188976;stroke-linecap:round;stroke-linejoin:round;paint-order:stroke fill markers"
             d="m 777.51285,-469.75017 a 56.780747,56.780747 45 0 0 -3.41469,2.76165 56.780747,56.780747 45 0 0 -6.21955,79.10224 56.780747,56.780747 45 0 0 35.71932,19.82056 59.443522,59.443522 0 0 1 -25.52863,-17.83788 59.443522,59.443522 0 0 1 6.51112,-82.81238 59.443522,59.443522 0 0 1 21.78689,-12.06868 56.780747,56.780747 45 0 0 -28.85446,11.03449 z" />
        </g>
      </g>
      <g
         id="g1291"
         transform="matrix(0.65464813,0,0,0.65464813,107.39488,147.017)">
        <g
           id="g1283"
           transform="matrix(1,0,0,0.95122685,-0.27381748,-3.3603525)">
          <g
             style="fill:none"
             id="g1281"
             transform="matrix(0.15072088,0,0.02221627,0.15072088,585.43431,-104.85611)">
            <path
               d="M 37.0761,126.529 H 102.341 L 98.2337,153 H 0.107605 L 24.0686,0.334001 H 120.141 L 116.033,26.8052 H 52.8219 l -5.4768,34.4583 h 59.5599 l -4.107,25.5584 H 43.2375 Z"
               fill="#ffffff"
               id="path1277" />
            <path
               d="m 37.0761,126.529 -3.8808,-0.602 -0.7028,4.529 h 4.5836 z m 65.2649,0 3.881,0.602 0.703,-4.529 h -4.584 z M 98.2337,153 v 3.927 h 3.3653 l 0.515,-3.325 z m -98.126095,0 -3.879695,-0.609 -0.71194,4.536 H 0.107605 Z M 24.0686,0.334001 V -3.59319 h -3.3589 l -0.5208,3.318271 z m 96.0724,0 3.881,0.602185 0.703,-4.529376 h -4.584 z M 116.033,26.8052 v 3.9272 h 3.365 l 0.516,-3.325 z m -63.2111,0 V 22.878 h -3.3523 l -0.5262,3.3108 z m -5.4768,34.4583 -3.8785,-0.6165 -0.7222,4.5437 h 4.6007 z m 59.5599,0 3.878,0.6231 0.731,-4.5503 h -4.609 z m -4.107,25.5584 v 3.9272 h 3.346 l 0.531,-3.304 z m -59.5605,0 v -3.9272 h -3.3648 l -0.516,3.325 z m -6.1614,43.6341 h 65.2649 v -7.854 H 37.0761 Z m 61.3845,-4.529 -4.1076,26.471 7.761,1.204 4.108,-26.471 z m -0.2269,23.146 H 0.107605 v 7.854 H 98.2337 Z M 3.9873,153.609 27.9483,0.942922 20.1889,-0.274919 -3.77209,152.391 Z M 24.0686,4.26119 H 120.141 V -3.59319 H 24.0686 Z M 116.26,-0.268184 112.153,26.203 l 7.761,1.2044 4.108,-26.471214 z M 116.033,22.878 H 52.8219 v 7.8544 h 63.2111 z m -67.0896,3.3108 -5.4768,34.4582 7.757,1.2329 5.4768,-34.4582 z M 47.3451,65.1907 H 106.905 V 57.3363 H 47.3451 Z m 55.6829,-4.5504 -4.1077,25.5585 7.7547,1.2463 4.108,-25.5585 z m -0.23,22.2544 H 43.2375 v 7.8544 h 59.5605 z m -63.4413,3.325 -6.1614,39.7073 7.7615,1.204 6.1614,-39.7069 z"
               fill="#ffffff"
               id="path1279" />
          </g>
        </g>
        <path
           style="fill:none;stroke:#ffffff;stroke-width:2.384;stroke-linecap:butt;stroke-linejoin:miter;stroke-miterlimit:4;stroke-dasharray:none;stroke-opacity:1"
           d="m 618.56993,-97.27002 h -4.28952 l -8.37186,21.686481 H 585.63052 L 581.14986,-92.4456 h 10.37891"
           id="path1285"
           sodipodi:nodetypes="cccccc" />
        <path
           style="fill:#ffffff;fill-opacity:1;stroke:#ffffff;stroke-width:2.349;stroke-linecap:round;stroke-linejoin:round;stroke-miterlimit:4;stroke-dasharray:none;stroke-opacity:1;paint-order:stroke fill markers"
           id="path1287"
           sodipodi:type="arc"
           sodipodi:cx="601.30847"
           sodipodi:cy="-69.851463"
           sodipodi:rx="1.4137788"
           sodipodi:ry="1.4137788"
           sodipodi:start="0"
           sodipodi:end="6.1887804"
           sodipodi:open="true"
           sodipodi:arc-type="arc"
           d="m 602.72225,-69.851463 a 1.4137788,1.4137788 0 0 1 -1.38041,1.413385 1.4137788,1.4137788 0 0 1 -1.44557,-1.346676 1.4137788,1.4137788 0 0 1 1.31218,-1.476946 1.4137788,1.4137788 0 0 1 1.50751,1.276967" />
        <path
           style="fill:#ffffff;fill-opacity:1;stroke:#ffffff;stroke-width:2.349;stroke-linecap:round;stroke-linejoin:round;stroke-miterlimit:4;stroke-dasharray:none;stroke-opacity:1;paint-order:stroke fill markers"
           id="path1289"
           sodipodi:type="arc"
           sodipodi:cx="589.66663"
           sodipodi:cy="-69.851463"
           sodipodi:rx="1.4137788"
           sodipodi:ry="1.4137788"
           sodipodi:start="0"
           sodipodi:end="6.1887804"
           sodipodi:open="true"
           sodipodi:arc-type="arc"
           d="m 591.0804,-69.851463 a 1.4137788,1.4137788 0 0 1 -1.38041,1.413385 1.4137788,1.4137788 0 0 1 -1.44557,-1.346676 1.4137788,1.4137788 0 0 1 1.31219,-1.476946 1.4137788,1.4137788 0 0 1 1.5075,1.276967" />
      </g>
    </g>
  </g>
</svg>
