<svg width="27" height="30" viewBox="0 0 27 30" fill="none" xmlns="http://www.w3.org/2000/svg">
<path d="M8.53039 29.5224C7.48859 29.4075 6.30515 29.0516 5.27489 28.5435C3.74515 27.7889 2.19223 26.3547 1.30726 24.8791C0.335349 23.2585 -0.127887 21.2701 0.0305075 19.3988C0.227127 17.0758 1.15867 15.0773 2.80864 13.4387C4.32591 11.9319 6.1616 11.026 8.32604 10.716C9.08404 10.6075 10.5621 10.6249 11.4059 10.7522L11.8876 10.825V14.1054V17.3858L11.4289 17.2463C11.1766 17.1696 10.8547 17.0646 10.7136 17.013C10.5663 16.959 10.1924 16.9066 9.83474 16.8898C9.30429 16.8649 9.14903 16.8795 8.78379 16.9885C7.87129 17.2609 7.17873 17.8318 6.76274 18.6544C5.86913 20.4216 6.75651 22.5346 8.66524 23.1845C9.22234 23.3743 10.1739 23.3743 10.731 23.1845C11.8226 22.8129 12.6758 21.8691 12.9087 20.7759C12.9828 20.4281 12.9951 18.9427 12.9959 10.1857L12.997 0H16.1416H19.2861L19.3236 0.355226C19.3443 0.550599 19.3615 0.895179 19.3619 1.12096C19.3655 3.02027 20.6526 5.11752 22.4338 6.12627C23.5449 6.75548 24.0308 6.86927 26.2945 7.03028L26.7178 7.06038V10.1558V13.2512L25.4771 13.2181C23.3066 13.1601 21.6917 12.7734 19.8989 11.8822L19.3611 11.6149V16.1391C19.3611 21.382 19.3399 21.679 18.8647 23.0956C17.4418 27.3366 13.114 30.028 8.53039 29.5224ZM11.2162 27.7125C14.4018 27.0565 16.6855 24.8411 17.4733 21.6428C17.5635 21.2764 17.5748 20.6269 17.5931 14.7512C17.6042 11.1833 17.6243 8.26413 17.6376 8.26413C17.651 8.26413 18.071 8.57475 18.571 8.95438C19.0709 9.33402 19.7021 9.77743 19.9735 9.93973C21.3766 10.7786 22.9585 11.2975 24.6304 11.4673L24.9662 11.5014V10.0851V8.66867H24.8278C24.2394 8.66867 22.81 8.26752 22.0375 7.88556C20.6684 7.20866 19.3428 5.97322 18.6279 4.70798C18.1758 3.90764 17.7904 2.81086 17.6945 2.05152L17.6544 1.73373H16.2028H14.7512L14.7334 11.2837C14.7169 20.1408 14.7082 20.861 14.614 21.2093C14.0617 23.2523 12.557 24.6509 10.5353 25.0005C8.00079 25.4388 5.47936 23.8319 4.81316 21.3538C4.64471 20.7272 4.6319 19.5168 4.78748 18.9266C5.37144 16.7112 7.37332 15.1413 9.61435 15.1413H10.136V13.7463V12.3514L9.30401 12.382C8.07639 12.4273 7.13983 12.6645 6.04897 13.2064C5.09087 13.6824 3.97449 14.6042 3.32513 15.4556C0.919577 18.6096 1.30278 23.0187 4.21655 25.7121C5.45527 26.8572 6.94807 27.5609 8.6431 27.7988C9.17621 27.8736 10.6784 27.8232 11.2162 27.7125Z" fill="#F1F1F1"/>
</svg>
